<svg width="1600" height="1200" viewBox="0 0 1600 1200" fill="none" xmlns="http://www.w3.org/2000/svg">
  <rect width="1600" height="1200" fill="#EAD2C3"/>
  <rect width="1600" height="1200" fill="url(#paint0_linear_1_2)"/>
  <rect width="1600" height="1200" fill="url(#paint1_radial_1_2)"/>
  <rect width="1600" height="1200" fill="url(#paint2_radial_1_2)"/>
  <rect width="1600" height="1200" fill="url(#paint3_radial_1_2)"/>
  <g opacity="0.22">
    <path d="M-78 909C132 804 392 786 615 856C839 926 1078 1086 1344 1078C1500 1073 1635 1000 1700 952V1200H-78V909Z" fill="#2D3D5D"/>
    <path d="M-95 983C108 890 304 866 499 889C750 919 946 1059 1210 1059C1405 1059 1561 992 1700 894V1200H-95V983Z" fill="#1C2841"/>
  </g>
  <g opacity="0.16">
    <circle cx="236" cy="198" r="132" stroke="white"/>
    <circle cx="1360" cy="246" r="96" stroke="white"/>
    <circle cx="1268" cy="990" r="168" stroke="white"/>
  </g>
  <g opacity="0.08">
    <path d="M0 134H1600" stroke="#16243D"/>
    <path d="M0 278H1600" stroke="#16243D"/>
    <path d="M0 422H1600" stroke="#16243D"/>
    <path d="M0 566H1600" stroke="#16243D"/>
    <path d="M0 710H1600" stroke="#16243D"/>
    <path d="M0 854H1600" stroke="#16243D"/>
    <path d="M0 998H1600" stroke="#16243D"/>
    <path d="M178 0V1200" stroke="#16243D"/>
    <path d="M356 0V1200" stroke="#16243D"/>
    <path d="M534 0V1200" stroke="#16243D"/>
    <path d="M712 0V1200" stroke="#16243D"/>
    <path d="M890 0V1200" stroke="#16243D"/>
    <path d="M1068 0V1200" stroke="#16243D"/>
    <path d="M1246 0V1200" stroke="#16243D"/>
    <path d="M1424 0V1200" stroke="#16243D"/>
  </g>
  <defs>
    <linearGradient id="paint0_linear_1_2" x1="800" y1="0" x2="800" y2="1200" gradientUnits="userSpaceOnUse">
      <stop stop-color="#F2DDD1"/>
      <stop offset="0.62" stop-color="#E5CDBE"/>
      <stop offset="1" stop-color="#C3C0C5"/>
    </linearGradient>
    <radialGradient id="paint1_radial_1_2" cx="0" cy="0" r="1" gradientUnits="userSpaceOnUse" gradientTransform="translate(820 140) rotate(90) scale(240 540)">
      <stop stop-color="white" stop-opacity="0.76"/>
      <stop offset="1" stop-color="white" stop-opacity="0"/>
    </radialGradient>
    <radialGradient id="paint2_radial_1_2" cx="0" cy="0" r="1" gradientUnits="userSpaceOnUse" gradientTransform="translate(233 185) rotate(90) scale(193 266)">
      <stop stop-color="#F6CDDD" stop-opacity="0.42"/>
      <stop offset="1" stop-color="#F6CDDD" stop-opacity="0"/>
    </radialGradient>
    <radialGradient id="paint3_radial_1_2" cx="0" cy="0" r="1" gradientUnits="userSpaceOnUse" gradientTransform="translate(1340 282) rotate(90) scale(184 260)">
      <stop stop-color="white" stop-opacity="0.32"/>
      <stop offset="1" stop-color="white" stop-opacity="0"/>
    </radialGradient>
  </defs>
</svg>
